<svg width="14" height="14" viewBox="0 0 14 14" fill="none" xmlns="http://www.w3.org/2000/svg">
<path d="M13.1465 2.69813C13.6567 2.18795 13.6567 1.35942 13.1465 0.849247C12.6363 0.339069 11.8078 0.339069 11.2976 0.849247L6.99988 5.15106L2.69807 0.853328C2.18789 0.343151 1.35936 0.343151 0.849186 0.853328C0.339008 1.36351 0.339008 2.19203 0.849186 2.70221L5.151 6.99995L0.853267 11.3018C0.34309 11.8119 0.34309 12.6405 0.853267 13.1506C1.36344 13.6608 2.19197 13.6608 2.70215 13.1506L6.99988 8.84883L11.3017 13.1466C11.8119 13.6567 12.6404 13.6567 13.1506 13.1466C13.6608 12.6364 13.6608 11.8079 13.1506 11.2977L8.84877 6.99995L13.1465 2.69813Z" fill="#161617"/>
</svg>
